<svg width="44" height="44" viewBox="0 0 44 44" fill="none" xmlns="http://www.w3.org/2000/svg">
<path d="M43.1862 35.4512C43.1862 36.2163 43.0162 37.0025 42.655 37.7675C42.2937 38.5325 41.8263 39.255 41.21 39.935C40.1688 41.0825 39.0212 41.9113 37.725 42.4425C36.45 42.9738 35.0688 43.25 33.5813 43.25C31.4138 43.25 29.0975 42.74 26.6537 41.6987C24.21 40.6575 21.7663 39.255 19.3438 37.4913C16.9 35.7063 14.5837 33.73 12.3737 31.5413C10.185 29.3312 8.20875 27.015 6.445 24.5925C4.7025 22.17 3.3 19.7475 2.28 17.3463C1.26 14.9238 0.75 12.6075 0.75 10.3975C0.75 8.9525 1.005 7.57125 1.515 6.29625C2.025 5 2.8325 3.81 3.95875 2.7475C5.31875 1.40875 6.80625 0.75 8.37875 0.75C8.97375 0.75 9.56875 0.8775 10.1 1.1325C10.6525 1.3875 11.1413 1.77 11.5238 2.3225L16.4538 9.27125C16.8363 9.8025 17.1125 10.2913 17.3037 10.7587C17.495 11.205 17.6012 11.6513 17.6012 12.055C17.6012 12.565 17.4525 13.075 17.155 13.5637C16.8787 14.0525 16.475 14.5625 15.965 15.0725L14.35 16.7512C14.1162 16.985 14.01 17.2613 14.01 17.6012C14.01 17.7712 14.0313 17.92 14.0738 18.09C14.1375 18.26 14.2013 18.3875 14.2438 18.515C14.6263 19.2162 15.285 20.13 16.22 21.235C17.1762 22.34 18.1962 23.4663 19.3012 24.5925C20.4487 25.7188 21.5537 26.76 22.68 27.7162C23.785 28.6512 24.6987 29.2887 25.4212 29.6712C25.5275 29.7137 25.655 29.7775 25.8037 29.8412C25.9737 29.905 26.1437 29.9262 26.335 29.9262C26.6962 29.9262 26.9725 29.7988 27.2062 29.565L28.8213 27.9713C29.3525 27.44 29.8625 27.0362 30.3512 26.7812C30.84 26.4837 31.3287 26.335 31.86 26.335C32.2637 26.335 32.6887 26.42 33.1562 26.6112C33.6237 26.8025 34.1125 27.0788 34.6438 27.44L41.6775 32.4338C42.23 32.8162 42.6125 33.2625 42.8462 33.7937C43.0588 34.325 43.1862 34.8563 43.1862 35.4512Z" fill="white" stroke="white" stroke-width="1.5" stroke-miterlimit="10"/>
<path d="M35.8125 15.625C35.8125 14.35 34.8137 12.395 33.3262 10.8013C31.9662 9.335 30.16 8.1875 28.375 8.1875" stroke="white" stroke-width="1.5" stroke-linecap="round" stroke-linejoin="round"/>
<path d="M43.25 15.625C43.25 7.40125 36.5987 0.75 28.375 0.75" stroke="white" stroke-width="1.5" stroke-linecap="round" stroke-linejoin="round"/>
</svg>
